<?xml version="1.0" encoding="UTF-8"?><svg id="Layer_1" xmlns="http://www.w3.org/2000/svg" viewBox="0 0 128 128"><defs><style>.cls-1{fill:#0065ab;stroke-width:0px;}</style></defs><path class="cls-1" d="M79.49,127.88c.55.23,1.21.12,1.65-.33.14-.14,13.83-13.74,24.94-17.04,3.44-1.01,5.75-3.95,5.75-7.32v-18.12l11.26-5.63c.39-.19.68-.55.79-.97.11-.42.04-.87-.2-1.23l-11.84-17.77c-.12-14.95-6.06-28.95-16.76-39.46-10.55-10.36-24.91-16.3-40.19-16.03-15.25.27-30,7.15-40.48,18.88C3.9,34.65-1.29,50.13.17,65.36c1.3,13.54,7.29,23.22,13.08,32.59,5.59,9.03,10.86,17.56,10.86,28.54,0,.84.68,1.51,1.51,1.51h6.05c4.17,0,7.56-3.39,7.56-7.56v-48.39c0-.4-.16-.79-.44-1.07l-6.86-6.86c.79-1.2,1.26-2.63,1.26-4.17,0-4.17-3.39-7.56-7.56-7.56s-7.56,3.39-7.56,7.56,3.39,7.56,7.56,7.56c1.54,0,2.97-.46,4.16-1.25l6.42,6.42v47.76c0,2.5-2.04,4.54-4.54,4.54h-4.57c-.44-11.1-5.72-19.62-11.29-28.62-5.61-9.07-11.41-18.44-12.64-31.28-1.38-14.4,3.54-29.04,13.48-40.17C26.58,13.8,40.53,7.28,54.94,7.03c14.22-.24,27.81,5.13,38.01,15.16,10.23,10.04,15.86,23.45,15.86,37.76,0,.3.09.59.25.84l11.15,16.72-10.56,5.28c-.51.26-.84.78-.84,1.35v19.05c0,2.01-1.44,3.78-3.58,4.42-8.94,2.66-19,11.12-23.64,15.36v-50.29l6.42-6.42c1.19.79,2.62,1.25,4.16,1.25,4.17,0,7.56-3.39,7.56-7.56s-3.39-7.56-7.56-7.56-7.56,3.39-7.56,7.56c0,1.54.47,2.97,1.26,4.17l-6.86,6.86c-.28.28-.44.67-.44,1.07v54.44c0,.61.37,1.16.93,1.4ZM25.63,64.49c-2.5,0-4.54-2.03-4.54-4.54s2.04-4.54,4.54-4.54,4.54,2.03,4.54,4.54-2.04,4.54-4.54,4.54ZM92.17,55.41c2.5,0,4.54,2.03,4.54,4.54s-2.04,4.54-4.54,4.54-4.54-2.03-4.54-4.54,2.04-4.54,4.54-4.54Z"/><path class="cls-1" d="M48.31,128c.84,0,1.51-.68,1.51-1.51V53.9c0-.4-.16-.79-.44-1.07l-12.91-12.91c.79-1.2,1.26-2.63,1.26-4.17,0-4.17-3.39-7.56-7.56-7.56s-7.56,3.39-7.56,7.56,3.39,7.56,7.56,7.56c1.54,0,2.97-.46,4.17-1.26l12.47,12.47v71.96c0,.84.68,1.51,1.51,1.51ZM30.17,40.29c-2.5,0-4.54-2.03-4.54-4.54s2.04-4.54,4.54-4.54,4.54,2.03,4.54,4.54-2.04,4.54-4.54,4.54Z"/><path class="cls-1" d="M67.97,47.85v78.63c0,.84.68,1.51,1.51,1.51s1.51-.68,1.51-1.51V48.48l6.42-6.42c1.2.79,2.63,1.26,4.17,1.26,4.17,0,7.56-3.39,7.56-7.56s-3.39-7.56-7.56-7.56-7.56,3.39-7.56,7.56c0,1.54.46,2.97,1.26,4.17l-6.86,6.86c-.28.28-.44.67-.44,1.07ZM81.58,31.22c2.5,0,4.54,2.03,4.54,4.54s-2.04,4.54-4.54,4.54-4.54-2.03-4.54-4.54,2.04-4.54,4.54-4.54Z"/><path class="cls-1" d="M58.9,128c.83,0,1.51-.68,1.51-1.51V31.07c3.45-.7,6.05-3.76,6.05-7.41,0-4.17-3.39-7.56-7.56-7.56s-7.56,3.39-7.56,7.56c0,3.65,2.6,6.71,6.05,7.41v95.42c0,.84.68,1.51,1.51,1.51ZM54.36,23.66c0-2.5,2.04-4.54,4.54-4.54s4.54,2.03,4.54,4.54-2.04,4.54-4.54,4.54-4.54-2.03-4.54-4.54Z"/></svg>