<?xml version="1.0" encoding="UTF-8"?><svg id="Layer_1" xmlns="http://www.w3.org/2000/svg" viewBox="0 0 128 128"><defs><style>.cls-1{fill:#0065ab;stroke-width:0px;}</style></defs><path class="cls-1" d="M65.45,125.77H8.08c-2.12,0-3.85-1.73-3.85-3.85v-5.3h58.72c.62,0,1.11-.5,1.11-1.11s-.5-1.11-1.11-1.11H4.23v-42.53c0-20.15,16.39-36.54,36.54-36.54,11.2,0,21.63,5.03,28.61,13.8.38.48,1.08.56,1.57.18.48-.38.56-1.08.18-1.57-5.84-7.35-13.97-12.22-22.98-13.94,1.63-3.43,4.64-8.1,9.24-8.87,2.37-.39,3.94-1.63,4.31-3.4.38-1.81-.6-3.73-2.56-5.02-3.43-2.26-10.02-2.59-18.36,3.07-8.34-5.66-14.93-5.32-18.36-3.07-1.96,1.29-2.94,3.21-2.56,5.02.37,1.76,1.94,3,4.31,3.4,4.61.77,7.62,5.44,9.25,8.88C15.54,37.24,2,52.99,2,71.85v43.63s0,.01,0,.02c0,0,0,.01,0,.02v6.4c0,3.35,2.73,6.08,6.08,6.08h57.36c.62,0,1.11-.5,1.11-1.11s-.5-1.12-1.11-1.12ZM24.52,22.71c-1.41-.24-2.32-.84-2.49-1.66-.18-.87.45-1.93,1.61-2.69,2.91-1.91,8.77-2,16.49,3.47,0,0,.02.01.03.02.03.02.07.04.1.06.03.02.06.03.09.05s.07.02.1.03c.04.01.07.02.11.03.03,0,.07,0,.1.01.04,0,.07,0,.11,0s.07,0,.11,0c.03,0,.07,0,.1-.01.04,0,.07-.02.11-.03.03-.01.07-.02.1-.03.03-.01.06-.03.09-.05.03-.02.07-.04.1-.06,0,0,.02,0,.03-.02,7.73-5.47,13.58-5.38,16.49-3.47,1.16.76,1.79,1.82,1.61,2.69-.17.82-1.08,1.42-2.49,1.66-5.63.94-9.14,6.17-11.16,10.7-1.67-.22-3.37-.33-5.08-.33s-3.42.11-5.08.33c-2.03-4.53-5.54-9.76-11.16-10.7Z"/><path class="cls-1" d="M79.54,94.83v-9.73c0-.62-.5-1.11-1.11-1.11s-1.11.5-1.11,1.11v9.73c0,.62.5,1.11,1.11,1.11s1.11-.5,1.11-1.11Z"/><path class="cls-1" d="M29.71,84.06c0,6.1,4.96,11.06,11.06,11.06s11.06-4.96,11.06-11.06-4.96-11.06-11.06-11.06-11.06,4.96-11.06,11.06ZM49.6,84.06c0,4.87-3.96,8.83-8.83,8.83s-8.83-3.96-8.83-8.83,3.96-8.83,8.83-8.83,8.83,3.96,8.83,8.83Z"/><path class="cls-1" d="M93.14,44.27c-5.18,0-9.39,4.21-9.39,9.39s4.21,9.39,9.39,9.39,9.39-4.21,9.39-9.39-4.21-9.39-9.39-9.39ZM93.14,60.82c-3.95,0-7.16-3.21-7.16-7.16s3.21-7.16,7.16-7.16,7.16,3.21,7.16,7.16-3.21,7.16-7.16,7.16Z"/><path class="cls-1" d="M125.81,43.92c-.04-.06-.09-.12-.14-.17l-22.62-22.62c-.1-.1-.22-.18-.35-.24,0,0,0,0-.01,0-.06-.02-.13-.04-.19-.06,0,0-.01,0-.02,0-.14-.03-.29-.03-.44,0-.01,0-.02,0-.04.01-.06.01-.12.03-.17.05-.02,0-.03.02-.05.02-.05.02-.1.05-.15.08-.04.03-.08.06-.11.09-.02.02-.04.03-.06.05l-40.86,40.86c-.05.05-.1.11-.14.17-.03.04-.05.09-.07.13,0,.02-.02.04-.03.06-.03.07-.05.13-.06.2,0,0,0,0,0,0-.07.35.03.73.3,1.01l5.85,5.85s0,0,.01,0l10.89,10.89s0,.01.01.02l5.85,5.85c.21.21.49.33.79.33s.58-.12.79-.33l5.85-5.85s0,0,0,0l29.15-29.15s0,0,0,0l5.85-5.85c.21-.21.33-.49.33-.79,0-.22-.07-.44-.19-.62ZM102.26,23.5l4.22,4.22c-1.22.89-2.68,1.37-4.22,1.37s-3-.48-4.22-1.37l4.21-4.22ZM67.19,67l-4.21-4.21,4.21-4.21c1.82,2.5,1.82,5.93,0,8.43ZM84.02,83.83l-4.21-4.22c1.22-.89,2.68-1.37,4.21-1.37s3,.48,4.21,1.37l-4.21,4.21ZM117.5,50.35l-27.68,27.68c-1.65-1.3-3.67-2.01-5.8-2.01s-4.15.71-5.8,2.01l-9.44-9.44c2.67-3.39,2.67-8.21,0-11.61l27.68-27.68c1.65,1.3,3.67,2.01,5.8,2.01s4.16-.71,5.8-2.01l9.44,9.44c-1.3,1.65-2.01,3.67-2.01,5.8s.71,4.16,2.01,5.8ZM119.09,48.76c-.89-1.22-1.37-2.68-1.37-4.22s.48-3,1.37-4.22l4.21,4.22-4.22,4.22Z"/><path class="cls-1" d="M102.17,101.55c0-2.17-1.76-3.93-3.93-3.93h-24.89c-2.17,0-3.93,1.76-3.93,3.93,0,.61.14,1.18.39,1.7h-.46c-2.17,0-3.93,1.76-3.93,3.93,0,1.1.46,2.1,1.19,2.81-.74.72-1.19,1.71-1.19,2.82,0,2.17,1.76,3.93,3.93,3.93h.46c-.25.51-.39,1.09-.39,1.7,0,.75.21,1.44.57,2.03-1.38.61-2.35,1.99-2.35,3.6,0,2.17,1.76,3.93,3.93,3.93h24.89c2.17,0,3.93-1.76,3.93-3.93,0-.74-.21-1.44-.57-2.03,1.38-.61,2.35-1.99,2.35-3.6,0-2.17-1.76-3.93-3.93-3.93h-.46c.25-.52.39-1.09.39-1.7,0-1.1-.46-2.1-1.19-2.82.74-.71,1.19-1.71,1.19-2.81,0-.61-.14-1.19-.39-1.7h.46c2.17,0,3.93-1.76,3.93-3.93ZM69.35,105.48h3.99s0,0,0,0h20.9c.93,0,1.7.76,1.7,1.7s-.76,1.7-1.7,1.7h-24.9c-.94,0-1.7-.76-1.7-1.7,0-.94.76-1.7,1.7-1.7ZM69.35,114.51c-.94,0-1.7-.76-1.7-1.7s.76-1.7,1.7-1.7h24.9c.94,0,1.7.76,1.7,1.7s-.76,1.7-1.7,1.7h-24.9ZM96.47,125.77h-24.89c-.94,0-1.7-.76-1.7-1.7s.76-1.7,1.7-1.7h1.77s0,0,0,0h23.12c.93,0,1.69.76,1.69,1.7,0,.94-.76,1.7-1.7,1.7ZM98.25,116.74c.94,0,1.7.76,1.7,1.7s-.76,1.7-1.7,1.7h-24.9c-.93,0-1.69-.76-1.69-1.7s.76-1.7,1.69-1.7h24.9ZM94.25,103.25h-20.9c-.93,0-1.69-.76-1.69-1.7s.76-1.7,1.7-1.7h24.89c.94,0,1.7.76,1.7,1.7s-.76,1.7-1.7,1.7h-4Z"/></svg>