<?xml version="1.0" encoding="UTF-8"?><svg id="Layer_1" xmlns="http://www.w3.org/2000/svg" viewBox="0 0 128 128"><defs><style>.cls-1{fill:#0065ab;stroke-width:0px;}</style></defs><path class="cls-1" d="M71.3,2.09c-21.34,0-38.7,17.36-38.7,38.7v.03c0,.25.57,25.5-14.13,35.77h0s0,0-.01.01c-.01,0-.02.02-.04.03-.04.03-.08.06-.12.1-.02.02-.04.04-.05.07-.03.03-.05.06-.07.1-.02.02-.03.05-.04.08-.02.04-.04.07-.05.11-.01.03-.02.05-.03.08-.01.04-.02.08-.03.12,0,.03,0,.07-.01.1,0,.03,0,.06,0,.09,0,0,0,0,0,.01,0,.04,0,.07.01.11,0,.03,0,.07.01.1,0,.01,0,.02.01.03.01.06.03.11.05.17,0,0,0,0,0,.01.03.06.06.12.1.17,0,0,0,0,0,0,0,0,.01.01.02.02.04.06.09.11.14.16.02.02.04.03.06.05.04.03.09.06.14.09.02.01.04.03.07.04.05.03.11.04.17.06.02,0,.04.01.06.02.08.02.15.03.24.03h16.99v18.52c0,.59.48,1.07,1.07,1.07h16.56v26.7c0,.59.48,1.07,1.07,1.07s1.07-.48,1.07-1.07v-27.77c0-.59-.48-1.07-1.07-1.07h-16.56v-18.52c0-.59-.48-1.07-1.07-1.07h-15c5.24-4.71,9.04-11.92,11.06-21.07,1.71-7.75,1.57-14.11,1.56-14.57,0-20.15,16.41-36.55,36.56-36.55s36.56,16.4,36.56,36.56v84.05c0,.59.48,1.07,1.07,1.07s1.07-.48,1.07-1.07V40.79c0-21.34-17.36-38.7-38.7-38.7Z"/><path class="cls-1" d="M71.48,15.05c-14.67,0-26.61,11.94-26.61,26.61s11.94,26.61,26.61,26.61,26.61-11.94,26.61-26.61-11.94-26.61-26.61-26.61ZM71.48,66.14c-13.5,0-24.48-10.98-24.48-24.48s10.98-24.48,24.48-24.48,24.48,10.98,24.48,24.48-10.98,24.48-24.48,24.48Z"/><path class="cls-1" d="M71.48,30.14h6.29c.59,0,1.07-.48,1.07-1.07s-.48-1.07-1.07-1.07h-5.23v-6c0-.59-.48-1.07-1.07-1.07s-1.07.48-1.07,1.07v6.08c-3.56.52-6.29,3.59-6.29,7.28,0,4.06,3.3,7.36,7.36,7.36,2.88,0,5.23,2.34,5.23,5.23s-2.34,5.23-5.23,5.23h-6.29c-.59,0-1.07.48-1.07,1.07s.48,1.07,1.07,1.07h5.23v6c0,.59.48,1.07,1.07,1.07s1.07-.48,1.07-1.07v-6.08c3.56-.52,6.29-3.59,6.29-7.28,0-4.06-3.3-7.36-7.36-7.36-2.88,0-5.23-2.34-5.23-5.22s2.34-5.23,5.23-5.23Z"/><path class="cls-1" d="M87.97,40.59h-1.82c-.59,0-1.07.48-1.07,1.07s.48,1.07,1.07,1.07h1.82c.59,0,1.07-.48,1.07-1.07s-.48-1.07-1.07-1.07Z"/><path class="cls-1" d="M56.8,40.59h-1.82c-.59,0-1.07.48-1.07,1.07s.48,1.07,1.07,1.07h1.82c.59,0,1.07-.48,1.07-1.07s-.48-1.07-1.07-1.07Z"/></svg>