<?xml version="1.0" encoding="UTF-8"?><svg id="Layer_1" xmlns="http://www.w3.org/2000/svg" viewBox="0 0 128 128"><defs><style>.cls-1{fill:#0065ab;stroke-width:0px;}</style></defs><path class="cls-1" d="M120.58,71.73s0-.09-.01-.14c0-.03,0-.06-.02-.09,0-.04-.02-.08-.04-.12-.01-.03-.02-.06-.03-.09-.02-.04-.04-.07-.06-.11-.02-.03-.03-.06-.05-.08,0,0,0-.01-.01-.02l-16.99-23.06s-.02-.02-.03-.04c-.03-.04-.07-.08-.11-.12-.03-.02-.05-.05-.08-.07-.01-.01-.02-.02-.04-.03-.03-.02-.07-.04-.1-.06-.03-.02-.05-.03-.08-.05-.07-.03-.14-.06-.21-.08-.01,0-.02,0-.03-.01-.08-.02-.17-.03-.25-.03,0,0-.01,0-.02,0H25.57s-.01,0-.02,0c-.08,0-.17.01-.25.03,0,0-.02,0-.03.01-.07.02-.14.04-.21.08-.03.01-.05.03-.08.05-.03.02-.07.04-.1.06-.01,0-.02.02-.04.03-.03.02-.05.04-.07.07-.04.04-.08.08-.11.12-.01.01-.02.02-.03.04l-16.99,23.06s0,.01-.01.02c-.02.03-.04.06-.05.09-.02.03-.04.07-.06.1-.01.03-.02.06-.03.09-.01.04-.03.08-.04.12,0,.03-.01.06-.02.09,0,.04-.01.09-.01.14,0,.02,0,.03,0,.05,0,.01,0,.03,0,.04,0,.05,0,.09.01.14,0,.03,0,.06.01.08.01.04.03.09.04.13,0,.03.02.05.03.08.02.05.05.09.07.13.01.02.02.04.03.06.03.05.08.1.12.14,0,0,.01.02.02.02,0,0,0,0,0,0l55.42,55.05s0,0,0,0c0,0,0,0,.01.01.05.05.1.09.16.13,0,0,0,0,0,0,0,0,.02.01.03.02.05.03.1.05.15.08,0,0,.02.01.03.01,0,0,0,0,.01,0h0s.02,0,.03,0c.04.02.09.03.13.04.01,0,.03,0,.04.01,0,0,0,0,0,0,0,0,.01,0,.02,0,.07.01.13.02.2.02h0c.07,0,.13,0,.2-.02,0,0,.02,0,.02,0h0s.03,0,.04-.01c.05-.01.09-.02.14-.04.01,0,.02,0,.03,0,0,0,0,0,0,0,0,0,0,0,0,0,0,0,.02,0,.03-.01.06-.02.11-.05.16-.08,0,0,.01,0,.01,0h0s0,0,0,0c.06-.04.11-.08.16-.13,0,0,.01,0,.02-.01,0,0,0,0,0,0l55.42-55.05s0,0,0,0c0,0,.01-.02.02-.02.04-.05.08-.09.12-.15.01-.02.02-.04.03-.06.03-.04.05-.09.07-.13.01-.02.02-.05.03-.08.01-.04.03-.09.04-.13,0-.03.01-.06.01-.08,0-.05.01-.09.01-.14,0-.01,0-.03,0-.04,0-.02,0-.03,0-.05ZM25.56,50.7l14.4,19.91H10.9l14.66-19.91ZM84.04,72.95l-20.04,50.71-20.04-50.71h40.07ZM44.95,70.61l19.05-20.19,19.05,20.19h-38.09ZM66.71,49.89h33.43l-14.51,20.06-18.93-20.06ZM42.36,69.95l-14.51-20.06h33.43l-18.93,20.06ZM41.45,72.95l19.41,49.12L11.42,72.95h30.03ZM86.55,72.95h30.03l-49.44,49.12,19.41-49.12ZM88.04,70.61l14.39-19.91,14.67,19.91h-29.06Z"/><path class="cls-1" d="M64,26.65c.65,0,1.17-.52,1.17-1.17V3.84c0-.65-.52-1.17-1.17-1.17s-1.17.52-1.17,1.17v21.64c0,.65.52,1.17,1.17,1.17Z"/><path class="cls-1" d="M46.43,26.92c.17.47.62.77,1.1.77.13,0,.27-.02.4-.07.61-.22.92-.89.7-1.5l-6.76-18.57c-.22-.61-.89-.92-1.5-.7-.61.22-.92.89-.7,1.5l6.76,18.57Z"/><path class="cls-1" d="M30.42,33.58c.23.28.56.42.9.42.26,0,.53-.09.75-.27.49-.42.56-1.15.14-1.65l-10.98-13.09c-.42-.49-1.15-.56-1.65-.14-.49.42-.56,1.15-.14,1.65l10.98,13.09Z"/><path class="cls-1" d="M17.38,46.03c.4,0,.8-.21,1.01-.58.32-.56.13-1.27-.43-1.6l-12.22-7.05c-.56-.32-1.27-.13-1.6.43s-.13,1.27.43,1.6l12.22,7.05c.18.11.38.16.58.16Z"/><path class="cls-1" d="M80.07,27.61c.13.05.27.07.4.07.48,0,.93-.29,1.1-.77l6.76-18.57c.22-.61-.09-1.28-.7-1.5-.61-.22-1.28.09-1.5.7l-6.76,18.57c-.22.61.09,1.28.7,1.5Z"/><path class="cls-1" d="M96.68,34c.33,0,.67-.14.9-.42l10.98-13.09c.42-.49.35-1.23-.14-1.65-.49-.41-1.23-.35-1.65.14l-10.98,13.09c-.42.49-.35,1.23.15,1.65.22.18.49.27.75.27Z"/><path class="cls-1" d="M123.84,37.23c-.32-.56-1.04-.75-1.6-.43l-12.22,7.05c-.56.32-.75,1.04-.43,1.6.22.37.61.58,1.01.58.2,0,.4-.05.58-.16l12.21-7.05c.56-.32.75-1.04.43-1.6Z"/></svg>